<mxfile host="Electron" modified="2025-05-02T10:43:22.136Z" agent="Mozilla/5.0 (Windows NT 10.0; Win64; x64) AppleWebKit/537.36 (KHTML, like Gecko) draw.io/21.6.8 Chrome/114.0.5735.289 Electron/25.5.0 Safari/537.36" etag="AlT4GsTSdhShmUpUuXQo" version="21.6.8" type="device">
  <diagram name="Page-1" id="aAp4TJHl25H6ZByTBbYu">
    <mxGraphModel dx="790" dy="390" grid="1" gridSize="10" guides="1" tooltips="1" connect="1" arrows="1" fold="1" page="1" pageScale="1" pageWidth="850" pageHeight="1100" math="0" shadow="0">
      <root>
        <mxCell id="0" />
        <mxCell id="1" parent="0" />
        <mxCell id="1u3SO1KcfUM9xAzt2V76-1" value="External Systems / Storage" style="whiteSpace=wrap;strokeWidth=2;verticalAlign=top;" vertex="1" parent="1">
          <mxGeometry x="3812" y="1224" width="909" height="84" as="geometry" />
        </mxCell>
        <mxCell id="1u3SO1KcfUM9xAzt2V76-2" value="A2A Registry Service" style="whiteSpace=wrap;strokeWidth=2;" vertex="1" parent="1">
          <mxGeometry x="3847" y="1249" width="161" height="34" as="geometry" />
        </mxCell>
        <mxCell id="1u3SO1KcfUM9xAzt2V76-3" value="Composite Store (DB/File)" style="whiteSpace=wrap;strokeWidth=2;" vertex="1" parent="1">
          <mxGeometry x="4058" y="1249" width="203" height="34" as="geometry" />
        </mxCell>
        <mxCell id="1u3SO1KcfUM9xAzt2V76-4" value="Base Agent A Service" style="whiteSpace=wrap;strokeWidth=2;" vertex="1" parent="1">
          <mxGeometry x="4311" y="1249" width="162" height="34" as="geometry" />
        </mxCell>
        <mxCell id="1u3SO1KcfUM9xAzt2V76-5" value="Base Agent B Service" style="whiteSpace=wrap;strokeWidth=2;" vertex="1" parent="1">
          <mxGeometry x="4523" y="1249" width="164" height="34" as="geometry" />
        </mxCell>
        <mxCell id="1u3SO1KcfUM9xAzt2V76-6" value="Backend Server (FastAPI/Python)" style="whiteSpace=wrap;strokeWidth=2;verticalAlign=top;" vertex="1" parent="1">
          <mxGeometry x="318" y="150" width="1505" height="1721" as="geometry" />
        </mxCell>
        <mxCell id="1u3SO1KcfUM9xAzt2V76-7" value="/api/agents GET" style="whiteSpace=wrap;strokeWidth=2;" vertex="1" parent="1">
          <mxGeometry x="1130" y="175" width="135" height="34" as="geometry" />
        </mxCell>
        <mxCell id="1u3SO1KcfUM9xAzt2V76-8" value="/api/run_workflow POST" style="whiteSpace=wrap;strokeWidth=2;" vertex="1" parent="1">
          <mxGeometry x="386" y="1071" width="194" height="34" as="geometry" />
        </mxCell>
        <mxCell id="1u3SO1KcfUM9xAzt2V76-9" value="/api/register_composite POST" style="whiteSpace=wrap;strokeWidth=2;" vertex="1" parent="1">
          <mxGeometry x="1454" y="1071" width="233" height="34" as="geometry" />
        </mxCell>
        <mxCell id="1u3SO1KcfUM9xAzt2V76-10" value="execute_workflow_graph()" style="whiteSpace=wrap;strokeWidth=2;" vertex="1" parent="1">
          <mxGeometry x="431" y="1377" width="207" height="34" as="geometry" />
        </mxCell>
        <mxCell id="1u3SO1KcfUM9xAzt2V76-11" value="load_composite_agents()" style="whiteSpace=wrap;strokeWidth=2;" vertex="1" parent="1">
          <mxGeometry x="688" y="1377" width="194" height="34" as="geometry" />
        </mxCell>
        <mxCell id="1u3SO1KcfUM9xAzt2V76-12" value="save_composite_agents()" style="whiteSpace=wrap;strokeWidth=2;" vertex="1" parent="1">
          <mxGeometry x="1416" y="1377" width="195" height="34" as="geometry" />
        </mxCell>
        <mxCell id="1u3SO1KcfUM9xAzt2V76-13" value="_get_base_agents_from_registry()" style="whiteSpace=wrap;strokeWidth=2;" vertex="1" parent="1">
          <mxGeometry x="1046" y="1377" width="261" height="34" as="geometry" />
        </mxCell>
        <mxCell id="1u3SO1KcfUM9xAzt2V76-14" value="a2a_call()" style="whiteSpace=wrap;strokeWidth=2;" vertex="1" parent="1">
          <mxGeometry x="1675" y="1812" width="86" height="34" as="geometry" />
        </mxCell>
        <mxCell id="1u3SO1KcfUM9xAzt2V76-15" value="Agent Cache (In-Memory)" style="whiteSpace=wrap;strokeWidth=2;" vertex="1" parent="1">
          <mxGeometry x="1349" y="1595" width="197" height="34" as="geometry" />
        </mxCell>
        <mxCell id="1u3SO1KcfUM9xAzt2V76-16" value="Browser UI (React/Vite)" style="whiteSpace=wrap;strokeWidth=2;verticalAlign=top;" vertex="1" parent="1">
          <mxGeometry x="2043" y="278" width="2860" height="877" as="geometry" />
        </mxCell>
        <mxCell id="1u3SO1KcfUM9xAzt2V76-17" value="Left Panel (Agents)" style="whiteSpace=wrap;strokeWidth=2;verticalAlign=top;" vertex="1" parent="1">
          <mxGeometry x="3311" y="303" width="549" height="187" as="geometry" />
        </mxCell>
        <mxCell id="1u3SO1KcfUM9xAzt2V76-18" value="Middle Panel (Builder)" style="whiteSpace=wrap;strokeWidth=2;verticalAlign=top;" vertex="1" parent="1">
          <mxGeometry x="2463" y="584" width="668" height="418" as="geometry" />
        </mxCell>
        <mxCell id="1u3SO1KcfUM9xAzt2V76-19" value="Right Panel (Run/Save)" style="whiteSpace=wrap;strokeWidth=2;verticalAlign=top;" vertex="1" parent="1">
          <mxGeometry x="3159" y="918" width="1724" height="212" as="geometry" />
        </mxCell>
        <mxCell id="1u3SO1KcfUM9xAzt2V76-20" value="App.jsx (Manages Nodes/Edges State)" style="whiteSpace=wrap;strokeWidth=2;" vertex="1" parent="1">
          <mxGeometry x="2116" y="712" width="286" height="34" as="geometry" />
        </mxCell>
        <mxCell id="1u3SO1KcfUM9xAzt2V76-21" value="RunPanel.jsx" style="whiteSpace=wrap;strokeWidth=2;" vertex="1" parent="1">
          <mxGeometry x="4032" y="943" width="107" height="34" as="geometry" />
        </mxCell>
        <mxCell id="1u3SO1KcfUM9xAzt2V76-22" value="Logs / Run Status State" style="whiteSpace=wrap;strokeWidth=2;" vertex="1" parent="1">
          <mxGeometry x="4189" y="1071" width="182" height="34" as="geometry" />
        </mxCell>
        <mxCell id="1u3SO1KcfUM9xAzt2V76-23" value="Save Status / Message State" style="whiteSpace=wrap;strokeWidth=2;" vertex="1" parent="1">
          <mxGeometry x="4465" y="1071" width="215" height="34" as="geometry" />
        </mxCell>
        <mxCell id="1u3SO1KcfUM9xAzt2V76-24" value="WorkflowBuilder.jsx" style="whiteSpace=wrap;strokeWidth=2;" vertex="1" parent="1">
          <mxGeometry x="2541" y="609" width="159" height="34" as="geometry" />
        </mxCell>
        <mxCell id="1u3SO1KcfUM9xAzt2V76-25" value="ReactFlow Canvas" style="whiteSpace=wrap;strokeWidth=2;" vertex="1" parent="1">
          <mxGeometry x="2818" y="943" width="143" height="34" as="geometry" />
        </mxCell>
        <mxCell id="1u3SO1KcfUM9xAzt2V76-26" value="AgentsPanel.jsx" style="whiteSpace=wrap;strokeWidth=2;" vertex="1" parent="1">
          <mxGeometry x="3539" y="328" width="130" height="34" as="geometry" />
        </mxCell>
        <mxCell id="1u3SO1KcfUM9xAzt2V76-27" value="Agent List State" style="whiteSpace=wrap;strokeWidth=2;" vertex="1" parent="1">
          <mxGeometry x="3400" y="431" width="130" height="34" as="geometry" />
        </mxCell>
        <mxCell id="1u3SO1KcfUM9xAzt2V76-28" value="User Interaction" style="whiteSpace=wrap;strokeWidth=2;verticalAlign=top;" vertex="1" parent="1">
          <mxGeometry x="4924" y="150" width="1307" height="365" as="geometry" />
        </mxCell>
        <mxCell id="1u3SO1KcfUM9xAzt2V76-29" value="Load Page / Refresh Agents" style="whiteSpace=wrap;strokeWidth=2;" vertex="1" parent="1">
          <mxGeometry x="5370" y="175" width="211" height="34" as="geometry" />
        </mxCell>
        <mxCell id="1u3SO1KcfUM9xAzt2V76-30" value="Drag Agent/Method" style="whiteSpace=wrap;strokeWidth=2;" vertex="1" parent="1">
          <mxGeometry x="5631" y="175" width="154" height="34" as="geometry" />
        </mxCell>
        <mxCell id="1u3SO1KcfUM9xAzt2V76-31" value="Drop onto Canvas" style="whiteSpace=wrap;strokeWidth=2;" vertex="1" parent="1">
          <mxGeometry x="4959" y="431" width="140" height="34" as="geometry" />
        </mxCell>
        <mxCell id="1u3SO1KcfUM9xAzt2V76-32" value="Draw Connection" style="whiteSpace=wrap;strokeWidth=2;" vertex="1" parent="1">
          <mxGeometry x="5149" y="431" width="137" height="34" as="geometry" />
        </mxCell>
        <mxCell id="1u3SO1KcfUM9xAzt2V76-33" value="Enter Runtime Inputs" style="whiteSpace=wrap;strokeWidth=2;" vertex="1" parent="1">
          <mxGeometry x="5336" y="431" width="167" height="34" as="geometry" />
        </mxCell>
        <mxCell id="1u3SO1KcfUM9xAzt2V76-34" value="Click &#39;Run Workflow&#39;" style="whiteSpace=wrap;strokeWidth=2;" vertex="1" parent="1">
          <mxGeometry x="5553" y="431" width="158" height="34" as="geometry" />
        </mxCell>
        <mxCell id="1u3SO1KcfUM9xAzt2V76-35" value="Enter Composite Name/Desc" style="whiteSpace=wrap;strokeWidth=2;" vertex="1" parent="1">
          <mxGeometry x="5761" y="431" width="220" height="34" as="geometry" />
        </mxCell>
        <mxCell id="1u3SO1KcfUM9xAzt2V76-36" value="Click &#39;Save Workflow&#39;" style="whiteSpace=wrap;strokeWidth=2;" vertex="1" parent="1">
          <mxGeometry x="6031" y="431" width="165" height="34" as="geometry" />
        </mxCell>
        <mxCell id="1u3SO1KcfUM9xAzt2V76-37" value="Nodes/Edges State" style="rounded=1;absoluteArcSize=1;arcSize=14;whiteSpace=wrap;strokeWidth=2;" vertex="1" parent="1">
          <mxGeometry x="1859" y="815" width="150" height="34" as="geometry" />
        </mxCell>
        <mxCell id="1u3SO1KcfUM9xAzt2V76-38" value="Parse Request" style="whiteSpace=wrap;strokeWidth=2;" vertex="1" parent="1">
          <mxGeometry x="168" y="1249" width="115" height="34" as="geometry" />
        </mxCell>
        <mxCell id="1u3SO1KcfUM9xAzt2V76-39" value="Internal Execution / A2A Calls" style="rhombus;strokeWidth=2;whiteSpace=wrap;" vertex="1" parent="1">
          <mxGeometry x="20" y="1480" width="263" height="263" as="geometry" />
        </mxCell>
        <mxCell id="1u3SO1KcfUM9xAzt2V76-40" value="Parse &amp; Validate" style="whiteSpace=wrap;strokeWidth=2;" vertex="1" parent="1">
          <mxGeometry x="1859" y="1249" width="132" height="34" as="geometry" />
        </mxCell>
        <mxCell id="1u3SO1KcfUM9xAzt2V76-41" value="Holds/Updates" style="curved=1;startArrow=none;endArrow=block;exitX=0.39612289636940684;exitY=1;entryX=0.9945442708333333;entryY=0.018287060776986785;rounded=0;" edge="1" parent="1" source="1u3SO1KcfUM9xAzt2V76-20" target="1u3SO1KcfUM9xAzt2V76-37">
          <mxGeometry relative="1" as="geometry">
            <Array as="points">
              <mxPoint x="2169" y="781" />
            </Array>
          </mxGeometry>
        </mxCell>
        <mxCell id="1u3SO1KcfUM9xAzt2V76-42" value="Passed as Props" style="curved=1;startArrow=none;endArrow=block;exitX=0.9945442708333333;exitY=0.34631924288530225;entryX=0.6051701223514673;entryY=1;rounded=0;" edge="1" parent="1" source="1u3SO1KcfUM9xAzt2V76-37" target="1u3SO1KcfUM9xAzt2V76-24">
          <mxGeometry relative="1" as="geometry">
            <Array as="points">
              <mxPoint x="2671" y="781" />
              <mxPoint x="2671" y="678" />
            </Array>
          </mxGeometry>
        </mxCell>
        <mxCell id="1u3SO1KcfUM9xAzt2V76-43" value="Passed as Props" style="curved=1;startArrow=none;endArrow=block;exitX=0.9945442708333333;exitY=0.5889791478301464;entryX=-0.004508615654205608;entryY=0.4245206252388364;rounded=0;" edge="1" parent="1" source="1u3SO1KcfUM9xAzt2V76-37" target="1u3SO1KcfUM9xAzt2V76-21">
          <mxGeometry relative="1" as="geometry">
            <Array as="points">
              <mxPoint x="3207" y="884" />
              <mxPoint x="3207" y="918" />
            </Array>
          </mxGeometry>
        </mxCell>
        <mxCell id="1u3SO1KcfUM9xAzt2V76-44" value="Triggers" style="curved=1;startArrow=none;endArrow=block;exitX=0.49882442239336494;exitY=1;entryX=0.9970552884615385;entryY=0.45718160319227213;rounded=0;" edge="1" parent="1" source="1u3SO1KcfUM9xAzt2V76-29" target="1u3SO1KcfUM9xAzt2V76-26">
          <mxGeometry relative="1" as="geometry">
            <Array as="points">
              <mxPoint x="5475" y="303" />
            </Array>
          </mxGeometry>
        </mxCell>
        <mxCell id="1u3SO1KcfUM9xAzt2V76-45" value="Calls fetchAgents()" style="curved=1;startArrow=none;endArrow=block;exitX=0.9970552884615385;exitY=0.25710106771976;entryX=0.9970552884615385;entryY=0.74289893228024;rounded=0;" edge="1" parent="1" source="1u3SO1KcfUM9xAzt2V76-26" target="1u3SO1KcfUM9xAzt2V76-26">
          <mxGeometry relative="1" as="geometry">
            <Array as="points">
              <mxPoint x="3737" y="328" />
              <mxPoint x="3754" y="328" />
              <mxPoint x="3772" y="345" />
              <mxPoint x="3754" y="362" />
              <mxPoint x="3737" y="362" />
            </Array>
          </mxGeometry>
        </mxCell>
        <mxCell id="1u3SO1KcfUM9xAzt2V76-46" value="axios.get(&#39;/api/agents&#39;)" style="curved=1;startArrow=none;endArrow=block;exitX=-0.0009615384615384616;exitY=0.45834655605168495;entryX=0.994140625;entryY=0.7110620091071558;rounded=0;" edge="1" parent="1" source="1u3SO1KcfUM9xAzt2V76-26" target="1u3SO1KcfUM9xAzt2V76-7">
          <mxGeometry relative="1" as="geometry">
            <Array as="points">
              <mxPoint x="1680" y="303" />
              <mxPoint x="1680" y="244" />
            </Array>
          </mxGeometry>
        </mxCell>
        <mxCell id="1u3SO1KcfUM9xAzt2V76-47" value="Calls load base agents" style="curved=1;startArrow=none;endArrow=block;exitX=0.13556120213052897;exitY=1;entryX=0.3389690830403976;entryY=0;rounded=0;" edge="1" parent="1" source="1u3SO1KcfUM9xAzt2V76-7" target="1u3SO1KcfUM9xAzt2V76-13">
          <mxGeometry relative="1" as="geometry">
            <Array as="points">
              <mxPoint x="1050" y="244" />
              <mxPoint x="1050" y="1343" />
            </Array>
          </mxGeometry>
        </mxCell>
        <mxCell id="1u3SO1KcfUM9xAzt2V76-48" value="A2A Call" style="curved=1;startArrow=none;endArrow=block;exitX=0.5720542053760739;exitY=0;entryX=0.767996074108992;entryY=1;rounded=0;" edge="1" parent="1" source="1u3SO1KcfUM9xAzt2V76-13" target="1u3SO1KcfUM9xAzt2V76-2">
          <mxGeometry relative="1" as="geometry">
            <Array as="points">
              <mxPoint x="1234" y="1343" />
              <mxPoint x="4034" y="1308" />
            </Array>
          </mxGeometry>
        </mxCell>
        <mxCell id="1u3SO1KcfUM9xAzt2V76-49" value="Base Agent List" style="curved=1;startArrow=none;endArrow=block;exitX=0.6982410321465553;exitY=1;entryX=0.43309339022337523;entryY=0;rounded=0;" edge="1" parent="1" source="1u3SO1KcfUM9xAzt2V76-2" target="1u3SO1KcfUM9xAzt2V76-13">
          <mxGeometry relative="1" as="geometry">
            <Array as="points">
              <mxPoint x="4006" y="1308" />
              <mxPoint x="1124" y="1343" />
            </Array>
          </mxGeometry>
        </mxCell>
        <mxCell id="1u3SO1KcfUM9xAzt2V76-50" value="Calls load composites" style="curved=1;startArrow=none;endArrow=block;exitX=-0.002907986111111111;exitY=0.6832066246415025;entryX=0.25493510565759187;entryY=0;rounded=0;" edge="1" parent="1" source="1u3SO1KcfUM9xAzt2V76-7" target="1u3SO1KcfUM9xAzt2V76-11">
          <mxGeometry relative="1" as="geometry">
            <Array as="points">
              <mxPoint x="640" y="244" />
              <mxPoint x="640" y="1343" />
            </Array>
          </mxGeometry>
        </mxCell>
        <mxCell id="1u3SO1KcfUM9xAzt2V76-51" value="Read Store" style="curved=1;startArrow=none;endArrow=block;exitX=0.5841681341332201;exitY=0;entryX=0.1543158885321372;entryY=1;rounded=0;" edge="1" parent="1" source="1u3SO1KcfUM9xAzt2V76-11" target="1u3SO1KcfUM9xAzt2V76-3">
          <mxGeometry relative="1" as="geometry">
            <Array as="points">
              <mxPoint x="834" y="1343" />
              <mxPoint x="3986" y="1308" />
            </Array>
          </mxGeometry>
        </mxCell>
        <mxCell id="1u3SO1KcfUM9xAzt2V76-52" value="Definitions" style="curved=1;startArrow=none;endArrow=block;exitX=0.0023043026477832513;exitY=1;entryX=0.3549466003778399;entryY=0;rounded=0;" edge="1" parent="1" source="1u3SO1KcfUM9xAzt2V76-3" target="1u3SO1KcfUM9xAzt2V76-11">
          <mxGeometry relative="1" as="geometry">
            <Array as="points">
              <mxPoint x="3910" y="1308" />
              <mxPoint x="699" y="1343" />
            </Array>
          </mxGeometry>
        </mxCell>
        <mxCell id="1u3SO1KcfUM9xAzt2V76-53" value="Merge &amp; Cache Results" style="curved=1;startArrow=none;endArrow=block;exitX=0.8493818264563102;exitY=1;entryX=0.44467294915806044;entryY=-0.012522977941176471;rounded=0;" edge="1" parent="1" source="1u3SO1KcfUM9xAzt2V76-7" target="1u3SO1KcfUM9xAzt2V76-15">
          <mxGeometry relative="1" as="geometry">
            <Array as="points">
              <mxPoint x="1342" y="244" />
              <mxPoint x="1342" y="1446" />
            </Array>
          </mxGeometry>
        </mxCell>
        <mxCell id="1u3SO1KcfUM9xAzt2V76-54" value="Merged Agent List Response" style="curved=1;startArrow=none;endArrow=block;exitX=0.994140625;exitY=0.8642804269580165;entryX=-0.0009615384615384616;entryY=0.4623248576947674;rounded=0;" edge="1" parent="1" source="1u3SO1KcfUM9xAzt2V76-7" target="1u3SO1KcfUM9xAzt2V76-26">
          <mxGeometry relative="1" as="geometry">
            <Array as="points">
              <mxPoint x="1477" y="244" />
              <mxPoint x="1477" y="303" />
            </Array>
          </mxGeometry>
        </mxCell>
        <mxCell id="1u3SO1KcfUM9xAzt2V76-55" value="Updates State" style="curved=1;startArrow=none;endArrow=block;exitX=-0.0009615384615384616;exitY=0.9727931018661075;entryX=0.32732901769043987;entryY=0;rounded=0;" edge="1" parent="1" source="1u3SO1KcfUM9xAzt2V76-26" target="1u3SO1KcfUM9xAzt2V76-27">
          <mxGeometry relative="1" as="geometry">
            <Array as="points">
              <mxPoint x="3396" y="397" />
            </Array>
          </mxGeometry>
        </mxCell>
        <mxCell id="1u3SO1KcfUM9xAzt2V76-56" value="(React renders list)" style="curved=1;startArrow=none;endArrow=block;exitX=0.6808741073095601;exitY=0;entryX=0.32386809185959814;entryY=1;rounded=0;" edge="1" parent="1" source="1u3SO1KcfUM9xAzt2V76-27" target="1u3SO1KcfUM9xAzt2V76-26">
          <mxGeometry relative="1" as="geometry">
            <Array as="points">
              <mxPoint x="3535" y="397" />
            </Array>
          </mxGeometry>
        </mxCell>
        <mxCell id="1u3SO1KcfUM9xAzt2V76-57" value="On Agent in" style="curved=1;startArrow=none;endArrow=block;exitX=0.4974507913961039;exitY=1;entryX=0.9970552884615385;entryY=0.4619105691789467;rounded=0;" edge="1" parent="1" source="1u3SO1KcfUM9xAzt2V76-30" target="1u3SO1KcfUM9xAzt2V76-26">
          <mxGeometry relative="1" as="geometry">
            <Array as="points">
              <mxPoint x="5708" y="303" />
            </Array>
          </mxGeometry>
        </mxCell>
        <mxCell id="1u3SO1KcfUM9xAzt2V76-58" value="onDragStart()" style="curved=1;startArrow=none;endArrow=block;exitX=0.7361274155153087;exitY=1;entryX=-0.0031668526785714286;entryY=0.42013091399791297;rounded=0;" edge="1" parent="1" source="1u3SO1KcfUM9xAzt2V76-26" target="1u3SO1KcfUM9xAzt2V76-31">
          <mxGeometry relative="1" as="geometry">
            <Array as="points">
              <mxPoint x="3698" y="397" />
            </Array>
          </mxGeometry>
        </mxCell>
        <mxCell id="1u3SO1KcfUM9xAzt2V76-59" value="Onto" style="curved=1;startArrow=none;endArrow=block;exitX=0.4982282366071429;exitY=1;entryX=0.5012038128930818;entryY=0;rounded=0;" edge="1" parent="1" source="1u3SO1KcfUM9xAzt2V76-31" target="1u3SO1KcfUM9xAzt2V76-24">
          <mxGeometry relative="1" as="geometry">
            <Array as="points">
              <mxPoint x="5029" y="515" />
              <mxPoint x="2621" y="550" />
            </Array>
          </mxGeometry>
        </mxCell>
        <mxCell id="1u3SO1KcfUM9xAzt2V76-60" value="onDrop() creates node" style="curved=1;startArrow=none;endArrow=block;exitX=0.3972375034346962;exitY=1;entryX=0.8600987528854644;entryY=0;rounded=0;" edge="1" parent="1" source="1u3SO1KcfUM9xAzt2V76-24" target="1u3SO1KcfUM9xAzt2V76-20">
          <mxGeometry relative="1" as="geometry">
            <Array as="points">
              <mxPoint x="2571" y="678" />
            </Array>
          </mxGeometry>
        </mxCell>
        <mxCell id="1u3SO1KcfUM9xAzt2V76-61" value="Updates" style="curved=1;startArrow=none;endArrow=block;exitX=0.5143773285270555;exitY=1;entryX=0.9945442708333333;entryY=0.16443239451377714;rounded=0;" edge="1" parent="1" source="1u3SO1KcfUM9xAzt2V76-20" target="1u3SO1KcfUM9xAzt2V76-37">
          <mxGeometry relative="1" as="geometry">
            <Array as="points">
              <mxPoint x="2271" y="781" />
            </Array>
          </mxGeometry>
        </mxCell>
        <mxCell id="1u3SO1KcfUM9xAzt2V76-62" value="(ReactFlow renders node)" style="curved=1;startArrow=none;endArrow=block;exitX=0.9945442708333333;exitY=0.6619644974456077;entryX=-0.001324847027972028;entryY=0.15454396411432889;rounded=0;" edge="1" parent="1" source="1u3SO1KcfUM9xAzt2V76-37" target="1u3SO1KcfUM9xAzt2V76-25">
          <mxGeometry relative="1" as="geometry">
            <Array as="points">
              <mxPoint x="2633" y="884" />
              <mxPoint x="2633" y="918" />
            </Array>
          </mxGeometry>
        </mxCell>
        <mxCell id="1u3SO1KcfUM9xAzt2V76-63" value="On Handles in" style="curved=1;startArrow=none;endArrow=block;exitX=0.49941548813868614;exitY=1;entryX=0.23451841127622378;entryY=0;rounded=0;" edge="1" parent="1" source="1u3SO1KcfUM9xAzt2V76-32" target="1u3SO1KcfUM9xAzt2V76-25">
          <mxGeometry relative="1" as="geometry">
            <Array as="points">
              <mxPoint x="5217" y="515" />
              <mxPoint x="2796" y="550" />
              <mxPoint x="2796" y="918" />
            </Array>
          </mxGeometry>
        </mxCell>
        <mxCell id="1u3SO1KcfUM9xAzt2V76-64" value="onConnect() creates edge" style="curved=1;startArrow=none;endArrow=block;exitX=0.8674453801406942;exitY=0;entryX=0.999808784965035;entryY=0.7844933994751253;rounded=0;" edge="1" parent="1" source="1u3SO1KcfUM9xAzt2V76-25" target="1u3SO1KcfUM9xAzt2V76-20">
          <mxGeometry relative="1" as="geometry">
            <Array as="points">
              <mxPoint x="3019" y="918" />
              <mxPoint x="3019" y="781" />
            </Array>
          </mxGeometry>
        </mxCell>
        <mxCell id="1u3SO1KcfUM9xAzt2V76-65" value="Updates" style="curved=1;startArrow=none;endArrow=block;exitX=0.605188292441782;exitY=1;entryX=0.9945442708333333;entryY=0.22784005249065878;rounded=0;" edge="1" parent="1" source="1u3SO1KcfUM9xAzt2V76-20" target="1u3SO1KcfUM9xAzt2V76-37">
          <mxGeometry relative="1" as="geometry">
            <Array as="points">
              <mxPoint x="2350" y="781" />
            </Array>
          </mxGeometry>
        </mxCell>
        <mxCell id="1u3SO1KcfUM9xAzt2V76-66" value="(ReactFlow renders edge)" style="curved=1;startArrow=none;endArrow=block;exitX=0.9945442708333333;exitY=0.6163389846900901;entryX=0.550981895708459;entryY=0;rounded=0;" edge="1" parent="1" source="1u3SO1KcfUM9xAzt2V76-37" target="1u3SO1KcfUM9xAzt2V76-25">
          <mxGeometry relative="1" as="geometry">
            <Array as="points">
              <mxPoint x="2907" y="884" />
              <mxPoint x="2907" y="918" />
            </Array>
          </mxGeometry>
        </mxCell>
        <mxCell id="1u3SO1KcfUM9xAzt2V76-67" value="Enters Data" style="curved=1;startArrow=none;endArrow=block;exitX=0.498421126497006;exitY=1;entryX=-0.004508615654205608;entryY=0.4174425231805384;rounded=0;" edge="1" parent="1" source="1u3SO1KcfUM9xAzt2V76-33" target="1u3SO1KcfUM9xAzt2V76-21">
          <mxGeometry relative="1" as="geometry">
            <Array as="points">
              <mxPoint x="5419" y="515" />
              <mxPoint x="3282" y="550" />
              <mxPoint x="3282" y="918" />
            </Array>
          </mxGeometry>
        </mxCell>
        <mxCell id="1u3SO1KcfUM9xAzt2V76-68" value="Triggers" style="curved=1;startArrow=none;endArrow=block;exitX=0.49820757515822783;exitY=1;entryX=-0.004508615654205608;entryY=0.29039587820775253;rounded=0;" edge="1" parent="1" source="1u3SO1KcfUM9xAzt2V76-34" target="1u3SO1KcfUM9xAzt2V76-21">
          <mxGeometry relative="1" as="geometry">
            <Array as="points">
              <mxPoint x="5632" y="515" />
              <mxPoint x="3769" y="550" />
              <mxPoint x="3769" y="918" />
            </Array>
          </mxGeometry>
        </mxCell>
        <mxCell id="1u3SO1KcfUM9xAzt2V76-69" value="handleRun() reads Nodes/Edges/Inputs" style="curved=1;startArrow=none;endArrow=block;exitX=0.9984849591121495;exitY=0.3422714503325959;entryX=0.9984849591121495;entryY=0.6577285496674041;rounded=0;" edge="1" parent="1" source="1u3SO1KcfUM9xAzt2V76-21" target="1u3SO1KcfUM9xAzt2V76-21">
          <mxGeometry relative="1" as="geometry">
            <Array as="points">
              <mxPoint x="4255" y="943" />
              <mxPoint x="4284" y="943" />
              <mxPoint x="4314" y="960" />
              <mxPoint x="4284" y="977" />
              <mxPoint x="4255" y="977" />
            </Array>
          </mxGeometry>
        </mxCell>
        <mxCell id="1u3SO1KcfUM9xAzt2V76-70" value="axios.post(&#39;/api/run_workflow&#39;)" style="curved=1;startArrow=none;endArrow=block;exitX=-0.004508615654205608;exitY=0.5876181971839955;entryX=1.0017618395618557;entryY=0.4483918739366305;rounded=0;" edge="1" parent="1" source="1u3SO1KcfUM9xAzt2V76-21" target="1u3SO1KcfUM9xAzt2V76-8">
          <mxGeometry relative="1" as="geometry">
            <Array as="points">
              <mxPoint x="3329" y="1002" />
              <mxPoint x="3329" y="1037" />
            </Array>
          </mxGeometry>
        </mxCell>
        <mxCell id="1u3SO1KcfUM9xAzt2V76-71" value="Request Payload" style="curved=1;startArrow=none;endArrow=block;exitX=0.502063869201031;exitY=1;entryX=1.0012907608695651;entryY=0.22429637678220282;rounded=0;" edge="1" parent="1" source="1u3SO1KcfUM9xAzt2V76-8" target="1u3SO1KcfUM9xAzt2V76-38">
          <mxGeometry relative="1" as="geometry">
            <Array as="points">
              <mxPoint x="483" y="1224" />
            </Array>
          </mxGeometry>
        </mxCell>
        <mxCell id="1u3SO1KcfUM9xAzt2V76-72" value="" style="curved=1;startArrow=none;endArrow=block;exitX=1.0012907608695651;exitY=0.7300935448475911;entryX=0.5;entryY=0;rounded=0;" edge="1" parent="1" source="1u3SO1KcfUM9xAzt2V76-38" target="1u3SO1KcfUM9xAzt2V76-10">
          <mxGeometry relative="1" as="geometry">
            <Array as="points">
              <mxPoint x="535" y="1308" />
            </Array>
          </mxGeometry>
        </mxCell>
        <mxCell id="1u3SO1KcfUM9xAzt2V76-73" value="Uses Cache + Runs Logic" style="curved=1;startArrow=none;endArrow=block;exitX=0.3504434448431125;exitY=1;entryX=1.0005644011406845;entryY=0.21293421681935493;rounded=0;" edge="1" parent="1" source="1u3SO1KcfUM9xAzt2V76-10" target="1u3SO1KcfUM9xAzt2V76-39">
          <mxGeometry relative="1" as="geometry">
            <Array as="points">
              <mxPoint x="441" y="1446" />
            </Array>
          </mxGeometry>
        </mxCell>
        <mxCell id="1u3SO1KcfUM9xAzt2V76-74" value="Calls" style="curved=1;startArrow=none;endArrow=block;exitX=1.0005644011406845;exitY=0.6041990736942158;entryX=0.00031795058139534886;entryY=0.4192212633395697;rounded=0;" edge="1" parent="1" source="1u3SO1KcfUM9xAzt2V76-39" target="1u3SO1KcfUM9xAzt2V76-14">
          <mxGeometry relative="1" as="geometry">
            <Array as="points">
              <mxPoint x="951" y="1778" />
            </Array>
          </mxGeometry>
        </mxCell>
        <mxCell id="1u3SO1KcfUM9xAzt2V76-75" value="A2A Call" style="curved=1;startArrow=none;endArrow=block;exitX=0.660476846494695;exitY=0.004365808823529412;entryX=0.8873967748750708;entryY=1;rounded=0;" edge="1" parent="1" source="1u3SO1KcfUM9xAzt2V76-14" target="1u3SO1KcfUM9xAzt2V76-4">
          <mxGeometry relative="1" as="geometry">
            <Array as="points">
              <mxPoint x="1760" y="1778" />
              <mxPoint x="1760" y="1343" />
              <mxPoint x="4547" y="1308" />
            </Array>
          </mxGeometry>
        </mxCell>
        <mxCell id="1u3SO1KcfUM9xAzt2V76-76" value="Response" style="curved=1;startArrow=none;endArrow=block;exitX=0.23516325415197076;exitY=1;entryX=0.3428843453657702;entryY=0.004365808823529412;rounded=0;" edge="1" parent="1" source="1u3SO1KcfUM9xAzt2V76-4" target="1u3SO1KcfUM9xAzt2V76-14">
          <mxGeometry relative="1" as="geometry">
            <Array as="points">
              <mxPoint x="4286" y="1308" />
              <mxPoint x="1677" y="1343" />
              <mxPoint x="1677" y="1778" />
            </Array>
          </mxGeometry>
        </mxCell>
        <mxCell id="1u3SO1KcfUM9xAzt2V76-77" value="(Composite Execution)" style="curved=1;startArrow=none;endArrow=block;exitX=1.0005644011406845;exitY=0.3540789839050632;entryX=0.795574931991933;entryY=1;rounded=0;" edge="1" parent="1" source="1u3SO1KcfUM9xAzt2V76-39" target="1u3SO1KcfUM9xAzt2V76-10">
          <mxGeometry relative="1" as="geometry">
            <Array as="points">
              <mxPoint x="720" y="1446" />
            </Array>
          </mxGeometry>
        </mxCell>
        <mxCell id="1u3SO1KcfUM9xAzt2V76-78" value="Logs &amp; Final State" style="curved=1;startArrow=none;endArrow=block;exitX=1.0005644011406845;exitY=0.3977395565890287;entryX=1.0017618395618557;entryY=0.7503096107945553;rounded=0;" edge="1" parent="1" source="1u3SO1KcfUM9xAzt2V76-39" target="1u3SO1KcfUM9xAzt2V76-8">
          <mxGeometry relative="1" as="geometry">
            <Array as="points">
              <mxPoint x="962" y="1446" />
              <mxPoint x="962" y="1130" />
            </Array>
          </mxGeometry>
        </mxCell>
        <mxCell id="1u3SO1KcfUM9xAzt2V76-79" value="WorkflowExecutionResponse" style="curved=1;startArrow=none;endArrow=block;exitX=1.0017618395618557;exitY=0.45232599053969125;entryX=-0.004508615654205608;entryY=0.6270480423022223;rounded=0;" edge="1" parent="1" source="1u3SO1KcfUM9xAzt2V76-8" target="1u3SO1KcfUM9xAzt2V76-21">
          <mxGeometry relative="1" as="geometry">
            <Array as="points">
              <mxPoint x="3563" y="1037" />
              <mxPoint x="3563" y="1002" />
            </Array>
          </mxGeometry>
        </mxCell>
        <mxCell id="1u3SO1KcfUM9xAzt2V76-80" value="Updates State" style="curved=1;startArrow=none;endArrow=block;exitX=0.9662279741043642;exitY=1;entryX=0.3726145952803283;entryY=0;rounded=0;" edge="1" parent="1" source="1u3SO1KcfUM9xAzt2V76-21" target="1u3SO1KcfUM9xAzt2V76-22">
          <mxGeometry relative="1" as="geometry">
            <Array as="points">
              <mxPoint x="4209" y="1002" />
              <mxPoint x="4209" y="1037" />
            </Array>
          </mxGeometry>
        </mxCell>
        <mxCell id="1u3SO1KcfUM9xAzt2V76-81" value="(React renders logs)" style="curved=1;startArrow=none;endArrow=block;exitX=0.6303258236757157;exitY=0;entryX=0.9984849591121495;entryY=0.7490695840206305;rounded=0;" edge="1" parent="1" source="1u3SO1KcfUM9xAzt2V76-22" target="1u3SO1KcfUM9xAzt2V76-21">
          <mxGeometry relative="1" as="geometry">
            <Array as="points">
              <mxPoint x="4351" y="1037" />
              <mxPoint x="4351" y="1002" />
            </Array>
          </mxGeometry>
        </mxCell>
        <mxCell id="1u3SO1KcfUM9xAzt2V76-82" value="Enters Data" style="curved=1;startArrow=none;endArrow=block;exitX=0.5000621448863637;exitY=1;entryX=0.9984849591121495;entryY=0.32776546532705075;rounded=0;" edge="1" parent="1" source="1u3SO1KcfUM9xAzt2V76-35" target="1u3SO1KcfUM9xAzt2V76-21">
          <mxGeometry relative="1" as="geometry">
            <Array as="points">
              <mxPoint x="5871" y="515" />
              <mxPoint x="4470" y="550" />
              <mxPoint x="4470" y="918" />
            </Array>
          </mxGeometry>
        </mxCell>
        <mxCell id="1u3SO1KcfUM9xAzt2V76-83" value="Triggers" style="curved=1;startArrow=none;endArrow=block;exitX=0.4998461174242424;exitY=1;entryX=0.9984849591121495;entryY=0.3605237761859077;rounded=0;" edge="1" parent="1" source="1u3SO1KcfUM9xAzt2V76-36" target="1u3SO1KcfUM9xAzt2V76-21">
          <mxGeometry relative="1" as="geometry">
            <Array as="points">
              <mxPoint x="6113" y="515" />
              <mxPoint x="4560" y="550" />
              <mxPoint x="4560" y="918" />
            </Array>
          </mxGeometry>
        </mxCell>
        <mxCell id="1u3SO1KcfUM9xAzt2V76-84" value="handleSaveWorkflow() reads Nodes/Edges/Name/Desc" style="curved=1;startArrow=none;endArrow=block;exitX=0.9984849591121495;exitY=0.4340258767253565;entryX=0.9984849591121495;entryY=0.5659741232746436;rounded=0;" edge="1" parent="1" source="1u3SO1KcfUM9xAzt2V76-21" target="1u3SO1KcfUM9xAzt2V76-21">
          <mxGeometry relative="1" as="geometry">
            <Array as="points">
              <mxPoint x="4492" y="943" />
              <mxPoint x="4580" y="943" />
              <mxPoint x="4668" y="960" />
              <mxPoint x="4580" y="977" />
              <mxPoint x="4492" y="977" />
            </Array>
          </mxGeometry>
        </mxCell>
        <mxCell id="1u3SO1KcfUM9xAzt2V76-85" value="axios.post(&#39;/api/register_composite&#39;)" style="curved=1;startArrow=none;endArrow=block;exitX=-0.004508615654205608;exitY=0.7478907200274287;entryX=0.9997317596566524;entryY=0.4214865497958559;rounded=0;" edge="1" parent="1" source="1u3SO1KcfUM9xAzt2V76-21" target="1u3SO1KcfUM9xAzt2V76-9">
          <mxGeometry relative="1" as="geometry">
            <Array as="points">
              <mxPoint x="3818" y="1002" />
              <mxPoint x="3818" y="1037" />
            </Array>
          </mxGeometry>
        </mxCell>
        <mxCell id="1u3SO1KcfUM9xAzt2V76-86" value="Request Payload" style="curved=1;startArrow=none;endArrow=block;exitX=0.49978205472103004;exitY=1;entryX=-0.00341796875;entryY=0.26914628724886613;rounded=0;" edge="1" parent="1" source="1u3SO1KcfUM9xAzt2V76-9" target="1u3SO1KcfUM9xAzt2V76-40">
          <mxGeometry relative="1" as="geometry">
            <Array as="points">
              <mxPoint x="1570" y="1224" />
            </Array>
          </mxGeometry>
        </mxCell>
        <mxCell id="1u3SO1KcfUM9xAzt2V76-87" value="" style="curved=1;startArrow=none;endArrow=block;exitX=-0.00341796875;exitY=0.650904227358283;entryX=0.2794679253796368;entryY=0;rounded=0;" edge="1" parent="1" source="1u3SO1KcfUM9xAzt2V76-40" target="1u3SO1KcfUM9xAzt2V76-12">
          <mxGeometry relative="1" as="geometry">
            <Array as="points">
              <mxPoint x="1383" y="1308" />
              <mxPoint x="1383" y="1343" />
            </Array>
          </mxGeometry>
        </mxCell>
        <mxCell id="1u3SO1KcfUM9xAzt2V76-88" value="Write to Store" style="curved=1;startArrow=none;endArrow=block;exitX=0.6039708193303457;exitY=0;entryX=0.7124251370806933;entryY=1;rounded=0;" edge="1" parent="1" source="1u3SO1KcfUM9xAzt2V76-12" target="1u3SO1KcfUM9xAzt2V76-3">
          <mxGeometry relative="1" as="geometry">
            <Array as="points">
              <mxPoint x="1574" y="1343" />
              <mxPoint x="4266" y="1308" />
            </Array>
          </mxGeometry>
        </mxCell>
        <mxCell id="1u3SO1KcfUM9xAzt2V76-89" value="Confirm Write" style="curved=1;startArrow=none;endArrow=block;exitX=0.2893948931943463;exitY=1;entryX=0.39851315502862866;entryY=0;rounded=0;" edge="1" parent="1" source="1u3SO1KcfUM9xAzt2V76-3" target="1u3SO1KcfUM9xAzt2V76-12">
          <mxGeometry relative="1" as="geometry">
            <Array as="points">
              <mxPoint x="4054" y="1308" />
              <mxPoint x="1453" y="1343" />
            </Array>
          </mxGeometry>
        </mxCell>
        <mxCell id="1u3SO1KcfUM9xAzt2V76-90" value="Updates Cache" style="curved=1;startArrow=none;endArrow=block;exitX=0.5012419871794872;exitY=1;entryX=0.5341266564491866;entryY=-0.012522977941176471;rounded=0;" edge="1" parent="1" source="1u3SO1KcfUM9xAzt2V76-12" target="1u3SO1KcfUM9xAzt2V76-15">
          <mxGeometry relative="1" as="geometry">
            <Array as="points">
              <mxPoint x="1514" y="1446" />
            </Array>
          </mxGeometry>
        </mxCell>
        <mxCell id="1u3SO1KcfUM9xAzt2V76-91" value="Success/Error Response" style="curved=1;startArrow=none;endArrow=block;exitX=0.9997317596566524;exitY=0.42897021199210633;entryX=0.38114665039497125;entryY=1;rounded=0;" edge="1" parent="1" source="1u3SO1KcfUM9xAzt2V76-9" target="1u3SO1KcfUM9xAzt2V76-21">
          <mxGeometry relative="1" as="geometry">
            <Array as="points">
              <mxPoint x="4055" y="1037" />
              <mxPoint x="4055" y="1002" />
            </Array>
          </mxGeometry>
        </mxCell>
        <mxCell id="1u3SO1KcfUM9xAzt2V76-92" value="Updates State" style="curved=1;startArrow=none;endArrow=block;exitX=0.9984849591121495;exitY=0.6623764806074097;entryX=0.37863768980017953;entryY=0;rounded=0;" edge="1" parent="1" source="1u3SO1KcfUM9xAzt2V76-21" target="1u3SO1KcfUM9xAzt2V76-23">
          <mxGeometry relative="1" as="geometry">
            <Array as="points">
              <mxPoint x="4493" y="1002" />
              <mxPoint x="4493" y="1037" />
            </Array>
          </mxGeometry>
        </mxCell>
        <mxCell id="1u3SO1KcfUM9xAzt2V76-93" value="(React renders message)" style="curved=1;startArrow=none;endArrow=block;exitX=0.6215985020602856;exitY=0;entryX=0.9984849591121495;entryY=0.617015893323295;rounded=0;" edge="1" parent="1" source="1u3SO1KcfUM9xAzt2V76-23" target="1u3SO1KcfUM9xAzt2V76-21">
          <mxGeometry relative="1" as="geometry">
            <Array as="points">
              <mxPoint x="4652" y="1037" />
              <mxPoint x="4652" y="1002" />
            </Array>
          </mxGeometry>
        </mxCell>
      </root>
    </mxGraphModel>
  </diagram>
</mxfile>
